<?xml version="1.0" standalone="no"?>
<!DOCTYPE svg PUBLIC "-//W3C//DTD SVG 20010904//EN"
 "http://www.w3.org/TR/2001/REC-SVG-20010904/DTD/svg10.dtd">
<svg version="1.0" xmlns="http://www.w3.org/2000/svg"
 width="1312.000000pt" height="1312.000000pt" viewBox="0 0 1312.000000 1312.000000"
 preserveAspectRatio="xMidYMid meet">
<metadata>
Created by potrace 1.11, written by Peter Selinger 2001-2013
</metadata>
<g transform="translate(0.000000,1312.000000) scale(0.100000,-0.100000)"
fill="#000000" stroke="none">
<path d="M4935 11162 c-1 -1 -27 -5 -56 -8 -30 -2 -70 -7 -89 -10 -19 -3 -46
-7 -60 -9 -14 -2 -25 -4 -25 -5 0 -1 -13 -4 -30 -6 -16 -3 -55 -12 -85 -21
-30 -9 -59 -18 -65 -19 -20 -5 -129 -45 -169 -62 -110 -46 -334 -174 -356
-202 -3 -4 -12 -11 -21 -16 -44 -25 -279 -243 -279 -259 0 -3 -12 -18 -26 -33
-57 -61 -198 -278 -262 -407 -9 -16 -18 -32 -21 -35 -6 -5 -13 -16 -59 -99
-14 -25 -36 -63 -49 -83 -12 -21 -23 -42 -23 -48 0 -5 -5 -10 -11 -10 -5 0 -8
-4 -5 -9 3 -5 -1 -14 -9 -21 -8 -7 -15 -16 -15 -21 0 -5 -11 -28 -26 -50 -14
-22 -33 -55 -44 -73 -10 -18 -24 -44 -32 -57 -7 -13 -19 -32 -27 -41 -8 -10
-11 -18 -7 -18 4 0 0 -7 -8 -16 -9 -8 -16 -21 -16 -29 0 -7 -7 -16 -16 -19 -9
-4 -14 -9 -11 -12 3 -3 -14 -39 -39 -79 -24 -40 -44 -78 -44 -84 0 -6 -4 -11
-9 -11 -5 0 -15 -16 -22 -35 -7 -19 -17 -35 -21 -35 -4 0 -8 -4 -8 -10 0 -8
-59 -113 -91 -160 -5 -8 -12 -23 -15 -32 -4 -10 -10 -18 -15 -18 -5 0 -8 -3
-7 -7 2 -8 -60 -121 -108 -195 -13 -21 -24 -40 -24 -42 0 -2 -27 -50 -60 -106
-33 -56 -60 -103 -60 -105 0 -3 -70 -123 -90 -155 -10 -15 -60 -105 -89 -159
-8 -14 -18 -27 -23 -29 -4 -2 -8 -8 -8 -14 0 -5 -9 -23 -21 -39 -11 -16 -17
-29 -12 -29 4 0 3 -4 -3 -8 -13 -9 -104 -167 -104 -181 0 -6 -8 -15 -17 -20
-10 -6 -14 -11 -10 -11 4 0 -8 -25 -28 -55 -19 -31 -35 -59 -35 -64 0 -5 -7
-14 -15 -21 -9 -7 -13 -15 -11 -18 3 -2 -11 -27 -30 -56 -18 -28 -34 -56 -34
-63 0 -7 -4 -13 -9 -13 -5 0 -13 -10 -17 -22 -4 -13 -9 -25 -13 -28 -3 -3 -14
-21 -25 -40 -18 -34 -183 -322 -301 -525 -32 -55 -69 -120 -83 -145 -14 -25
-28 -49 -32 -55 -8 -11 -34 -56 -83 -145 -17 -30 -34 -56 -39 -58 -4 -2 -8 -8
-8 -13 0 -8 -65 -123 -220 -389 -61 -104 -262 -453 -274 -475 -6 -11 -17 -28
-25 -37 -8 -10 -11 -18 -7 -18 3 0 -9 -24 -28 -52 -18 -29 -90 -152 -159 -273
-69 -121 -130 -224 -134 -230 -5 -5 -19 -31 -33 -57 -35 -65 -223 -392 -230
-398 -3 -3 -12 -19 -21 -35 -8 -17 -25 -48 -36 -70 -57 -108 -133 -300 -133
-337 0 -10 -4 -18 -8 -18 -5 0 -9 -16 -10 -35 -1 -20 -5 -41 -9 -48 -4 -7 -9
-21 -10 -32 -2 -11 -5 -33 -8 -50 -3 -16 -9 -50 -13 -75 -9 -58 -9 -412 0
-470 4 -25 10 -63 13 -85 3 -22 9 -49 12 -60 4 -11 7 -22 8 -25 7 -37 22 -99
25 -102 1 -2 3 -10 5 -18 13 -62 116 -297 168 -385 19 -33 90 -140 96 -145 3
-3 17 -21 31 -40 50 -71 211 -238 279 -290 18 -14 38 -30 44 -36 27 -23 148
-104 157 -104 5 0 10 -4 10 -8 0 -4 46 -30 103 -57 56 -28 105 -54 109 -60 4
-5 8 -7 8 -2 0 4 17 -1 37 -11 42 -21 211 -74 288 -90 45 -10 77 -16 155 -27
26 -4 238 -18 255 -17 22 2 469 4 495 3 43 -2 115 1 121 5 4 2 10 1 12 -3 3
-5 55 -6 117 -3 62 3 114 2 115 -1 2 -3 29 -2 59 1 31 3 60 3 66 0 5 -3 37 -3
70 0 33 3 60 3 60 0 0 -3 24 -4 53 -1 28 4 75 4 102 1 28 -3 90 -3 138 0 49 3
90 2 92 -1 2 -3 29 -2 59 1 31 3 60 3 66 0 5 -3 37 -3 70 0 33 3 60 2 60 -3 0
-4 4 -6 8 -3 5 3 30 5 58 6 45 1 240 2 274 1 8 0 80 0 160 0 80 0 152 0 160 0
16 -1 110 0 119 1 3 0 9 0 14 -1 9 -2 205 -2 215 0 4 1 10 1 14 0 15 -2 334
-2 383 0 22 0 46 1 53 0 6 -1 18 -1 25 -2 16 -1 143 0 182 2 17 0 35 1 40 1
38 -2 252 -3 260 -1 6 1 13 1 17 0 12 -1 126 -2 438 0 80 0 152 0 160 0 43 -2
115 1 121 5 4 2 10 1 12 -3 3 -5 55 -6 117 -3 62 3 114 2 115 -1 2 -3 29 -2
59 1 31 3 60 3 66 0 5 -3 37 -3 70 0 33 3 60 3 60 0 0 -3 24 -4 53 -1 28 4 75
4 102 1 28 -3 90 -3 138 0 49 3 90 2 92 -1 2 -3 29 -2 59 1 31 3 60 3 66 0 5
-3 37 -3 70 0 33 3 60 2 60 -3 0 -4 4 -5 10 -2 17 10 352 5 395 -6 17 -4 62
-11 100 -14 71 -7 3485 -8 3540 -1 117 14 145 17 166 21 13 3 35 7 49 10 24 5
49 10 88 19 9 2 29 9 45 15 15 6 27 9 27 7 0 -3 24 5 53 16 28 10 57 21 62 22
41 12 187 78 218 99 15 10 27 16 27 12 0 -3 6 -1 13 5 6 5 48 33 92 61 44 29
92 61 106 73 15 11 44 35 64 51 56 44 194 183 240 240 22 27 45 55 50 62 11
13 39 54 89 128 33 50 100 177 130 248 9 20 22 52 30 70 26 60 67 203 91 318
22 106 24 132 21 359 -2 135 -6 252 -8 260 -9 28 -18 65 -22 91 -7 44 -37 152
-52 186 -8 17 -14 37 -14 45 0 7 -8 25 -17 38 -10 14 -17 26 -15 28 1 1 1 4 1
7 -1 3 -2 8 -3 13 -3 11 -86 175 -95 187 -4 5 -22 35 -38 65 -17 30 -51 90
-76 133 -26 42 -43 77 -39 77 4 0 -1 5 -10 11 -10 5 -18 14 -18 20 0 5 -18 39
-40 75 -22 36 -40 70 -40 74 0 4 -7 13 -15 20 -8 7 -12 16 -9 21 3 5 2 9 -3 9
-4 0 -13 10 -19 23 -6 12 -56 100 -112 196 -56 96 -102 178 -102 182 0 5 -4 9
-10 9 -5 0 -10 9 -10 19 0 11 -4 21 -9 23 -5 2 -23 29 -40 60 -46 86 -55 103
-62 108 -4 3 -18 28 -33 55 -15 28 -31 57 -36 65 -30 49 -160 272 -160 275 0
1 -43 75 -95 164 -52 89 -95 164 -95 168 0 4 -6 14 -14 22 -7 9 -27 41 -43 71
-17 30 -54 96 -83 145 -29 50 -60 103 -69 120 -9 16 -19 32 -22 35 -3 3 -8 12
-12 20 -3 8 -20 38 -37 65 -16 28 -35 62 -41 78 -6 15 -15 27 -20 27 -5 0 -9
4 -9 9 0 4 -37 70 -81 147 -45 76 -84 145 -87 153 -9 24 -35 50 -44 45 -4 -3
-8 -1 -8 4 0 11 -106 174 -136 212 -11 12 -37 43 -58 69 -66 78 -250 251 -267
251 -4 0 -9 3 -11 8 -2 4 -37 30 -78 57 -104 69 -111 74 -145 89 -16 8 -34 18
-38 23 -5 4 -12 8 -15 9 -4 0 -28 10 -54 22 -49 23 -95 43 -113 48 -5 2 -44
15 -85 30 -41 14 -84 28 -95 30 -11 2 -31 6 -45 9 -128 28 -165 34 -245 41
-95 8 -286 10 -290 3 -3 -3 -16 -5 -31 -3 -15 1 -54 -2 -88 -8 -33 -5 -70 -11
-81 -13 -11 -1 -20 -3 -20 -4 0 -1 -15 -4 -34 -7 -58 -7 -209 -54 -306 -95
-16 -7 -32 -13 -35 -14 -13 -3 -159 -78 -191 -97 -20 -13 -55 -34 -78 -47 -22
-14 -41 -28 -41 -33 0 -4 -5 -8 -11 -8 -10 0 -50 -30 -133 -100 -69 -57 -205
-203 -251 -268 -28 -39 -52 -71 -55 -71 -4 -1 -49 76 -144 243 -15 28 -38 69
-51 91 -40 72 -85 150 -95 165 -6 8 -13 22 -17 30 -4 8 -28 51 -53 95 -26 44
-58 100 -72 125 -90 161 -164 285 -170 288 -5 2 -6 7 -3 12 3 4 -2 13 -10 20
-8 7 -15 16 -15 20 0 4 -31 63 -70 129 -38 67 -70 124 -70 127 0 3 -5 10 -10
17 -11 12 -80 131 -127 217 -13 25 -33 61 -45 80 -41 68 -79 135 -91 160 -6
14 -14 27 -18 30 -3 3 -12 20 -20 38 -8 17 -16 32 -20 32 -3 0 -11 16 -19 35
-8 19 -17 35 -21 35 -4 0 -9 8 -12 18 -3 9 -19 40 -36 67 -32 54 -40 68 -91
160 -18 33 -43 76 -55 95 -22 36 -69 118 -101 180 -11 19 -21 37 -24 40 -6 6
-34 55 -65 115 -12 22 -35 49 -52 60 -17 11 -34 27 -37 35 -4 8 -12 24 -19 35
-24 39 -52 80 -57 85 -3 3 -19 25 -35 49 -37 55 -44 63 -158 181 -109 113
-165 161 -273 232 -112 75 -116 77 -149 92 -16 8 -34 18 -38 23 -5 4 -12 8
-15 8 -4 1 -36 15 -72 32 -74 34 -231 89 -280 98 -18 3 -40 10 -49 14 -9 5
-38 11 -66 15 -47 5 -90 13 -90 16 0 6 -364 18 -370 12z m195 -1552 c82 -22
154 -85 210 -186 15 -27 50 -89 79 -137 28 -49 51 -92 51 -97 0 -5 3 -10 8
-12 9 -4 92 -147 92 -159 0 -5 5 -9 12 -9 6 0 9 -3 6 -6 -5 -5 18 -47 49 -89
5 -6 9 -15 10 -21 1 -5 20 -40 43 -78 23 -38 50 -84 61 -102 10 -19 28 -50 39
-69 11 -19 28 -50 38 -67 28 -49 82 -141 92 -158 20 -31 74 -127 94 -165 12
-22 34 -59 49 -82 15 -24 27 -45 27 -48 0 -4 32 -59 77 -132 7 -13 14 -26 14
-30 0 -5 6 -15 13 -23 7 -8 28 -42 47 -75 19 -33 39 -69 46 -80 7 -11 15 -27
19 -35 4 -8 14 -23 22 -32 8 -10 12 -18 8 -18 -4 0 7 -20 24 -44 16 -25 30
-47 30 -50 0 -3 13 -27 29 -53 47 -78 80 -136 99 -173 9 -19 25 -44 35 -54 9
-11 17 -23 17 -27 0 -5 35 -68 78 -141 43 -73 89 -154 102 -180 14 -27 28 -48
32 -48 5 0 8 -4 8 -9 0 -6 29 -60 65 -121 36 -61 65 -113 65 -116 0 -3 16 -30
35 -60 19 -30 35 -59 35 -64 0 -6 5 -10 10 -10 6 0 10 -5 10 -11 0 -6 29 -61
65 -121 36 -61 65 -114 65 -119 0 -5 5 -9 12 -9 6 0 9 -3 5 -6 -3 -3 9 -29 27
-57 18 -29 36 -59 39 -67 4 -8 18 -33 32 -55 14 -22 37 -62 51 -88 25 -48 25
-49 7 -75 -10 -15 -24 -38 -31 -52 -7 -14 -18 -34 -25 -45 -7 -11 -32 -56 -56
-100 -25 -44 -47 -82 -50 -85 -3 -3 -11 -14 -17 -25 -49 -92 -61 -112 -72
-123 -7 -8 -10 -17 -7 -22 3 -5 1 -10 -3 -12 -5 -1 -34 -48 -65 -103 -32 -55
-69 -120 -84 -145 -37 -63 -69 -119 -91 -160 -40 -74 -152 -266 -162 -277 -5
-7 -10 -15 -10 -18 0 -4 -28 -54 -63 -113 -81 -137 -148 -276 -182 -377 -15
-44 -30 -87 -33 -95 -3 -8 -6 -19 -7 -25 -2 -5 -8 -28 -13 -50 -6 -22 -14 -56
-17 -75 -3 -19 -8 -42 -10 -50 -3 -8 -7 -40 -11 -70 -3 -30 -7 -68 -9 -85 -11
-83 -3 -384 10 -405 2 -3 -1012 -5 -2253 -5 -2170 1 -2258 1 -2292 19 -82 43
-170 141 -170 190 0 9 -4 16 -8 16 -9 0 -8 141 1 178 5 19 60 123 104 197 6
11 19 34 27 50 9 17 27 48 40 70 14 22 32 54 40 70 18 34 52 94 82 145 12 19
35 60 51 90 17 30 40 71 51 90 12 19 35 62 53 95 17 33 34 65 39 70 7 10 31
51 93 165 17 30 34 57 39 58 4 2 8 8 8 13 0 5 29 60 63 122 35 61 67 120 70
130 4 9 11 17 17 17 6 0 9 4 5 9 -3 5 0 15 7 23 7 7 28 43 47 78 19 36 37 67
40 70 3 3 14 21 23 40 10 19 33 62 53 95 20 33 38 68 42 78 3 9 10 17 15 17 5
0 7 4 4 9 -4 5 -3 11 1 13 5 1 22 29 38 60 17 32 34 58 38 58 5 0 6 4 2 9 -3
5 0 16 7 23 14 14 15 16 68 113 33 61 133 238 150 265 5 8 23 42 41 75 17 33
34 62 38 65 3 3 14 21 25 40 10 19 29 53 41 75 12 22 39 72 60 110 21 39 43
77 49 85 7 8 21 33 31 55 11 22 26 46 33 53 7 8 10 18 7 23 -4 5 -2 9 4 9 5 0
13 10 17 23 4 12 10 24 14 27 4 3 19 28 34 55 14 28 42 77 61 110 20 33 39 67
42 75 4 8 9 17 12 20 3 3 16 25 29 50 13 25 34 63 48 85 13 22 34 60 47 85 12
25 25 47 30 48 4 2 7 10 7 17 0 8 6 20 13 27 6 7 19 27 27 43 8 17 17 32 20
35 3 3 15 23 27 45 21 39 48 89 75 136 7 13 19 32 27 42 8 9 10 17 6 17 -4 0
-1 8 7 18 8 9 34 51 56 92 22 41 70 126 106 188 35 62 68 121 71 132 4 11 10
20 14 20 4 0 13 16 21 35 8 19 17 35 22 35 4 0 8 5 8 10 0 9 76 146 311 558
33 57 59 107 59 112 0 6 4 10 9 10 5 0 13 10 16 22 4 11 21 44 38 72 35 59 42
73 126 223 35 62 67 115 72 119 5 3 7 10 4 15 -4 5 -2 9 3 9 9 0 25 37 23 53
-1 4 3 7 9 7 5 0 16 15 25 34 25 53 134 144 155 131 6 -3 10 -2 10 3 0 24 126
32 200 12z m4700 -2859 c82 -31 132 -83 201 -209 11 -20 31 -55 45 -77 14 -22
30 -52 37 -67 6 -16 15 -28 20 -28 4 0 5 -4 2 -10 -3 -5 -1 -10 4 -10 6 0 11
-7 11 -15 0 -8 4 -15 8 -15 4 0 13 -12 19 -27 7 -16 25 -50 41 -78 16 -27 35
-61 43 -75 8 -14 22 -36 31 -49 10 -13 15 -27 12 -32 -3 -5 -1 -9 3 -9 5 0 22
-25 38 -55 17 -30 33 -55 36 -55 3 0 6 -6 6 -12 0 -7 16 -38 35 -68 19 -30 48
-79 64 -108 16 -29 34 -61 39 -70 6 -9 27 -47 48 -84 21 -37 43 -70 48 -74 5
-3 9 -14 9 -24 0 -10 4 -20 8 -22 5 -1 22 -28 39 -58 60 -108 215 -375 225
-387 6 -7 7 -13 2 -13 -5 0 -4 -4 2 -8 6 -4 23 -29 38 -57 14 -27 31 -57 36
-65 10 -15 122 -209 164 -283 13 -23 33 -58 45 -77 11 -19 26 -47 32 -62 6
-16 15 -28 20 -28 5 0 9 -5 9 -11 0 -6 23 -48 50 -95 28 -47 50 -87 50 -91 0
-4 6 -14 14 -22 8 -9 26 -38 40 -66 15 -27 32 -59 39 -70 46 -75 110 -188 141
-250 15 -30 20 -59 20 -115 0 -85 -3 -100 -28 -152 -27 -56 -86 -111 -151
-144 l-60 -29 -640 0 -640 0 1 30 c0 17 5 68 10 115 18 181 4 426 -33 570 -10
40 -13 53 -15 78 -1 12 -6 22 -10 22 -4 0 -8 8 -8 17 0 18 -16 70 -36 118 -60
145 -80 189 -114 250 -22 39 -48 86 -57 105 -10 19 -20 37 -23 40 -9 9 -51 85
-57 103 -3 9 -9 17 -14 17 -5 0 -9 5 -9 11 0 9 -21 47 -102 184 -10 17 -26 46
-36 65 -9 19 -20 37 -24 40 -4 3 -12 17 -17 30 -6 14 -20 39 -30 55 -18 30
-41 70 -82 143 -12 20 -39 67 -60 104 -22 36 -39 71 -39 77 0 6 -4 11 -10 11
-5 0 -10 6 -10 14 0 7 -7 19 -15 26 -8 6 -14 15 -13 18 1 4 -9 25 -23 47 -29
48 -51 88 -76 135 -10 19 -20 37 -23 40 -3 3 -12 19 -20 35 -8 17 -17 32 -20
35 -3 3 -13 19 -22 36 -16 29 -16 32 3 70 12 21 34 59 49 84 15 25 76 131 135
235 60 105 111 192 114 195 3 3 17 26 30 53 41 81 134 149 224 166 61 11 115
5 177 -18z m-1609 -2318 c8 -16 16 -30 19 -33 3 -3 11 -16 17 -30 15 -29 40
-74 109 -190 28 -47 54 -92 58 -100 35 -73 116 -197 134 -205 46 -21 58 -151
23 -245 -21 -55 -83 -132 -132 -162 -56 -35 -119 -45 -295 -43 -187 1 -193 3
-254 67 -54 56 -83 129 -82 211 0 39 2 79 4 87 6 25 51 112 85 167 18 29 33
54 33 57 0 2 26 48 58 103 32 54 62 105 66 113 4 8 19 36 34 61 15 25 43 73
62 107 19 34 38 62 41 62 3 0 12 -12 20 -27z"/>
</g>
</svg>
